<svg width="17" height="17" viewBox="0 0 17 17" fill="none" xmlns="http://www.w3.org/2000/svg">
<mask id="path-1-inside-1_212_1413" fill="white">
<path d="M10.3414 7.92435C10.261 7.92435 10.1863 7.90225 10.12 7.8667V7.86764C10.12 7.99412 10.0708 8.1129 9.98165 8.20186C9.89245 8.29106 9.77376 8.34022 9.64742 8.34022C9.56586 8.34022 9.49027 8.31757 9.42324 8.28107C9.41648 8.39678 9.37023 8.50493 9.28772 8.58753C9.19852 8.67673 9.07983 8.72589 8.95341 8.72589C8.70225 8.72589 8.49828 8.52846 8.48358 8.281C8.40587 8.323 8.31801 8.34502 8.22739 8.3392C7.98031 8.323 7.78682 8.10952 7.78682 7.85309V5.72748L7.54478 6.1468C7.45259 6.30718 7.28003 6.40676 7.09423 6.40676C7.00369 6.40676 6.91426 6.38301 6.83505 6.33762C6.73641 6.28044 6.66586 6.18864 6.63651 6.07883C6.60702 5.96894 6.62228 5.85402 6.6793 5.75553C6.67938 5.75553 7.47123 4.38428 7.51954 4.30005C7.52528 4.28738 7.54164 4.25065 7.55557 4.21934C7.56886 4.18945 7.58027 4.15878 7.5912 4.12794C7.83 3.45377 8.42129 3.03499 9.1344 3.03499C10.0604 3.03499 10.8138 3.85193 10.8138 4.8561L10.8139 7.4517C10.8139 7.57802 10.7648 7.69672 10.6757 7.786C10.5865 7.8752 10.4678 7.92436 10.3413 7.92436L10.3414 7.92435ZM9.13441 3.28611C8.52165 3.28611 8.03326 3.63221 7.82789 4.21192C7.81476 4.24874 7.80107 4.28555 7.7851 4.32142C7.73877 4.42532 7.73877 4.42532 7.72571 4.44027L7.72398 4.43877C7.65933 4.56077 7.46724 4.89342 6.89674 5.88121C6.8733 5.92172 6.86708 5.96876 6.87904 6.01375C6.89115 6.05874 6.92018 6.09666 6.96037 6.11986C7.08512 6.19152 7.25597 6.14527 7.32708 6.02138L7.80367 5.19625C7.83214 5.14709 7.88972 5.12294 7.94494 5.13788C7.99984 5.15259 8.03799 5.20238 8.03799 5.25917V7.85316C8.03799 7.97555 8.13033 8.08118 8.24385 8.08866C8.30929 8.09212 8.37033 8.07017 8.41619 8.02439C8.45788 7.9827 8.48084 7.92717 8.48084 7.86778V6.17128C8.48084 6.10191 8.53708 6.04566 8.60646 6.04566C8.67584 6.04566 8.73208 6.10183 8.73208 6.17128L8.732 8.2534C8.732 8.37548 8.83134 8.47482 8.95342 8.47482C9.01273 8.47482 9.06842 8.45185 9.11019 8.41016C9.15188 8.3684 9.17484 8.31271 9.17484 8.2534V6.17128C9.17484 6.1019 9.23101 6.04566 9.30046 6.04566C9.36984 6.04566 9.42608 6.10183 9.42608 6.17128L9.426 7.84827V7.86778C9.426 7.98978 9.52535 8.08912 9.6475 8.08912C9.70673 8.08912 9.76226 8.06607 9.80427 8.02422C9.84596 7.98261 9.86892 7.92708 9.86892 7.86769V6.17119C9.86892 6.10182 9.92509 6.04558 9.99454 6.04558C10.0639 6.04558 10.1202 6.10174 10.1202 6.17119L10.12 7.45175C10.12 7.57391 10.2193 7.67326 10.3413 7.67326C10.4007 7.67326 10.4563 7.65021 10.498 7.6086C10.5398 7.56675 10.5627 7.51106 10.5627 7.45175L10.5628 4.85616C10.5628 3.99053 9.92202 3.28613 9.1344 3.28613L9.13441 3.28611Z"/>
</mask>
<path d="M10.3414 7.92435C10.261 7.92435 10.1863 7.90225 10.12 7.8667V7.86764C10.12 7.99412 10.0708 8.1129 9.98165 8.20186C9.89245 8.29106 9.77376 8.34022 9.64742 8.34022C9.56586 8.34022 9.49027 8.31757 9.42324 8.28107C9.41648 8.39678 9.37023 8.50493 9.28772 8.58753C9.19852 8.67673 9.07983 8.72589 8.95341 8.72589C8.70225 8.72589 8.49828 8.52846 8.48358 8.281C8.40587 8.323 8.31801 8.34502 8.22739 8.3392C7.98031 8.323 7.78682 8.10952 7.78682 7.85309V5.72748L7.54478 6.1468C7.45259 6.30718 7.28003 6.40676 7.09423 6.40676C7.00369 6.40676 6.91426 6.38301 6.83505 6.33762C6.73641 6.28044 6.66586 6.18864 6.63651 6.07883C6.60702 5.96894 6.62228 5.85402 6.6793 5.75553C6.67938 5.75553 7.47123 4.38428 7.51954 4.30005C7.52528 4.28738 7.54164 4.25065 7.55557 4.21934C7.56886 4.18945 7.58027 4.15878 7.5912 4.12794C7.83 3.45377 8.42129 3.03499 9.1344 3.03499C10.0604 3.03499 10.8138 3.85193 10.8138 4.8561L10.8139 7.4517C10.8139 7.57802 10.7648 7.69672 10.6757 7.786C10.5865 7.8752 10.4678 7.92436 10.3413 7.92436L10.3414 7.92435ZM9.13441 3.28611C8.52165 3.28611 8.03326 3.63221 7.82789 4.21192C7.81476 4.24874 7.80107 4.28555 7.7851 4.32142C7.73877 4.42532 7.73877 4.42532 7.72571 4.44027L7.72398 4.43877C7.65933 4.56077 7.46724 4.89342 6.89674 5.88121C6.8733 5.92172 6.86708 5.96876 6.87904 6.01375C6.89115 6.05874 6.92018 6.09666 6.96037 6.11986C7.08512 6.19152 7.25597 6.14527 7.32708 6.02138L7.80367 5.19625C7.83214 5.14709 7.88972 5.12294 7.94494 5.13788C7.99984 5.15259 8.03799 5.20238 8.03799 5.25917V7.85316C8.03799 7.97555 8.13033 8.08118 8.24385 8.08866C8.30929 8.09212 8.37033 8.07017 8.41619 8.02439C8.45788 7.9827 8.48084 7.92717 8.48084 7.86778V6.17128C8.48084 6.10191 8.53708 6.04566 8.60646 6.04566C8.67584 6.04566 8.73208 6.10183 8.73208 6.17128L8.732 8.2534C8.732 8.37548 8.83134 8.47482 8.95342 8.47482C9.01273 8.47482 9.06842 8.45185 9.11019 8.41016C9.15188 8.3684 9.17484 8.31271 9.17484 8.2534V6.17128C9.17484 6.1019 9.23101 6.04566 9.30046 6.04566C9.36984 6.04566 9.42608 6.10183 9.42608 6.17128L9.426 7.84827V7.86778C9.426 7.98978 9.52535 8.08912 9.6475 8.08912C9.70673 8.08912 9.76226 8.06607 9.80427 8.02422C9.84596 7.98261 9.86892 7.92708 9.86892 7.86769V6.17119C9.86892 6.10182 9.92509 6.04558 9.99454 6.04558C10.0639 6.04558 10.1202 6.10174 10.1202 6.17119L10.12 7.45175C10.12 7.57391 10.2193 7.67326 10.3413 7.67326C10.4007 7.67326 10.4563 7.65021 10.498 7.6086C10.5398 7.56675 10.5627 7.51106 10.5627 7.45175L10.5628 4.85616C10.5628 3.99053 9.92202 3.28613 9.1344 3.28613L9.13441 3.28611Z" fill="#4CAF4F"/>
<path d="M10.3414 7.92435V7.4792H11.9141L10.5747 8.30347L10.3414 7.92435ZM10.12 7.8667H9.67485V7.12289L10.3304 7.47438L10.12 7.8667ZM9.98165 8.20186L9.66688 7.88709L9.66729 7.88668L9.98165 8.20186ZM9.42324 8.28107L8.97885 8.25509L9.01981 7.55449L9.63614 7.89013L9.42324 8.28107ZM9.28772 8.58753L9.60265 8.90214L9.60249 8.9023L9.28772 8.58753ZM8.48358 8.281L8.27193 7.88938L8.88653 7.5572L8.92796 8.2546L8.48358 8.281ZM8.22739 8.3392L8.19885 8.78344L8.19826 8.7834L8.22739 8.3392ZM7.78682 5.72748L7.40128 5.50494L8.23198 4.0658V5.72748H7.78682ZM7.54478 6.1468L7.15884 5.92496L7.15924 5.92426L7.54478 6.1468ZM6.83505 6.33762L6.61373 6.72387L6.61178 6.72274L6.83505 6.33762ZM6.63651 6.07883L7.06645 5.96342L7.06658 5.96392L6.63651 6.07883ZM6.6793 5.75553L6.29407 5.53247L6.42267 5.31038H6.6793V5.75553ZM7.51954 4.30005L7.92497 4.48387L7.91623 4.50315L7.9057 4.52151L7.51954 4.30005ZM7.55557 4.21934L7.14882 4.03846L7.14882 4.03845L7.55557 4.21934ZM7.5912 4.12794L8.01081 4.27657L8.01077 4.27669L7.5912 4.12794ZM10.8138 4.8561L10.3687 4.85611V4.8561H10.8138ZM10.8139 7.4517L11.2591 7.45168V7.4517H10.8139ZM10.6757 7.786L10.9908 8.10048L10.9905 8.10077L10.6757 7.786ZM10.3413 7.92436V8.36952H8.76858L10.108 7.54524L10.3413 7.92436ZM9.13441 3.28611V2.84095H9.72456L9.56244 3.4084L9.13441 3.28611ZM7.82789 4.21192L8.24749 4.36058L8.24715 4.36153L7.82789 4.21192ZM7.7851 4.32142L8.19178 4.50246L8.19167 4.5027L7.7851 4.32142ZM7.72571 4.44027L8.06094 4.73316L7.76972 5.06646L7.43475 4.77717L7.72571 4.44027ZM7.72398 4.43877L7.33065 4.23032L7.59221 3.73678L8.01495 4.10187L7.72398 4.43877ZM6.89674 5.88121L7.28222 6.10385L7.28203 6.10417L6.89674 5.88121ZM6.87904 6.01375L6.44919 6.12948L6.44882 6.12809L6.87904 6.01375ZM6.96037 6.11986L6.73865 6.50587L6.73781 6.50539L6.96037 6.11986ZM7.32708 6.02138L6.94099 5.79979L6.9416 5.79873L7.32708 6.02138ZM7.80367 5.19625L7.41819 4.9736L7.41846 4.97313L7.80367 5.19625ZM7.94494 5.13788L7.82974 5.56788L7.82864 5.56758L7.94494 5.13788ZM8.24385 8.08866L8.22033 8.53323L8.21461 8.53285L8.24385 8.08866ZM8.41619 8.02439L8.73096 8.33916L8.73068 8.33944L8.41619 8.02439ZM8.73208 6.17128H9.17723V6.1713L8.73208 6.17128ZM8.732 8.2534H8.28684V8.25338L8.732 8.2534ZM9.11019 8.41016L9.42526 8.72464L9.42466 8.72524L9.11019 8.41016ZM9.42608 6.17128H9.87123V6.1713L9.42608 6.17128ZM9.426 7.84827H8.98084V7.84825L9.426 7.84827ZM9.80427 8.02422L10.1187 8.33929L10.1185 8.33959L9.80427 8.02422ZM10.1202 6.17119H10.5653V6.17125L10.1202 6.17119ZM10.12 7.45175H9.67485L9.67485 7.4517L10.12 7.45175ZM10.498 7.6086L10.8127 7.92337L10.8124 7.92367L10.498 7.6086ZM10.5627 7.45175H10.1175V7.45174L10.5627 7.45175ZM10.5628 4.85616H11.0079V4.85617L10.5628 4.85616ZM9.1344 3.28613V3.73129H8.54425L8.70637 3.16384L9.1344 3.28613ZM10.3414 8.36951C10.1774 8.36951 10.0311 8.32413 9.90965 8.25901L10.3304 7.47438C10.3361 7.47746 10.3398 7.47864 10.3412 7.47903C10.3425 7.47937 10.3423 7.4792 10.3414 7.4792V8.36951ZM10.5652 7.8667V7.86764H9.67485V7.8667H10.5652ZM10.5652 7.86764C10.5652 8.11182 10.4693 8.34417 10.296 8.51705L9.66729 7.88668C9.67047 7.8835 9.67205 7.88078 9.67297 7.87856C9.67389 7.87633 9.67485 7.8729 9.67485 7.86764H10.5652ZM10.2964 8.51664C10.1237 8.68939 9.89172 8.78538 9.64742 8.78538V7.89507C9.65253 7.89507 9.65589 7.89414 9.65817 7.8932C9.66045 7.89225 9.6634 7.89057 9.66688 7.88709L10.2964 8.51664ZM9.64742 8.78538C9.48137 8.78538 9.3332 8.73892 9.21035 8.67202L9.63614 7.89013C9.64194 7.89328 9.64561 7.89449 9.64707 7.89488C9.64832 7.89522 9.64822 7.89507 9.64742 7.89507V8.78538ZM9.86764 8.30705C9.85483 8.52617 9.76595 8.73867 9.60265 8.90214L8.97278 8.27292C8.97443 8.27127 8.97539 8.26981 8.97619 8.26797C8.97707 8.26597 8.97845 8.26189 8.97885 8.25509L9.86764 8.30705ZM9.60249 8.9023C9.42971 9.07509 9.19775 9.17105 8.95341 9.17105V8.28074C8.95859 8.28074 8.96198 8.2798 8.96426 8.27885C8.96653 8.27791 8.96947 8.27623 8.97294 8.27276L9.60249 8.9023ZM8.95341 9.17105C8.46196 9.17105 8.0676 8.78533 8.03921 8.30739L8.92796 8.2546C8.92841 8.26217 8.9315 8.26881 8.93698 8.27404C8.93966 8.27659 8.94237 8.27823 8.94473 8.27919C8.9468 8.28004 8.94943 8.28074 8.95341 8.28074V9.17105ZM8.69524 8.67261C8.55145 8.75033 8.38097 8.79514 8.19885 8.78344L8.25593 7.89496C8.25593 7.89496 8.25688 7.89506 8.25923 7.89451C8.26174 7.89392 8.2661 7.89253 8.27193 7.88938L8.69524 8.67261ZM8.19826 8.7834C7.70399 8.75099 7.34167 8.33065 7.34167 7.85309H8.23198C8.23198 7.86814 8.23744 7.87973 8.24429 7.88729C8.25097 7.89465 8.2555 7.89493 8.25652 7.895L8.19826 8.7834ZM7.34167 7.85309V5.72748H8.23198V7.85309H7.34167ZM8.17236 5.95002L7.93032 6.36934L7.15924 5.92426L7.40128 5.50494L8.17236 5.95002ZM7.93072 6.36864C7.75871 6.66789 7.43853 6.85192 7.09423 6.85192V5.96161C7.12152 5.96161 7.14647 5.94647 7.15884 5.92496L7.93072 6.36864ZM7.09423 6.85192C6.92588 6.85192 6.76017 6.80777 6.61373 6.72386L7.05637 5.95138C7.06834 5.95824 7.08149 5.96161 7.09423 5.96161V6.85192ZM6.61178 6.72274C6.41192 6.60687 6.26645 6.41831 6.20644 6.19373L7.06658 5.96392C7.06618 5.9624 7.06507 5.95971 7.06292 5.95692C7.0608 5.95415 7.05883 5.9528 7.05832 5.9525L6.61178 6.72274ZM6.20658 6.19423C6.14634 5.96982 6.17788 5.73314 6.29407 5.53247L7.06454 5.9786C7.06517 5.9775 7.06629 5.97496 7.06676 5.97136C7.06724 5.96776 7.06684 5.96488 7.06645 5.96342L6.20658 6.19423ZM6.6793 5.31038C6.46094 5.36762 6.29749 5.52666 6.29627 5.52871C6.29587 5.5294 6.29526 5.53043 6.29507 5.53076C6.29496 5.53095 6.29477 5.53127 6.2947 5.53138C6.29466 5.53145 6.29458 5.53159 6.29456 5.53162C6.2945 5.53173 6.29452 5.5317 6.29469 5.53141C6.29499 5.53089 6.2955 5.53001 6.29624 5.52873C6.2977 5.5262 6.29989 5.5224 6.3028 5.51738C6.30859 5.50735 6.31711 5.49261 6.32798 5.47379C6.34973 5.43614 6.38084 5.38227 6.41834 5.31734C6.49334 5.18748 6.59383 5.01345 6.69582 4.83679C6.90016 4.48288 7.10966 4.11996 7.13338 4.07858L7.9057 4.52151C7.88112 4.56437 7.67053 4.92919 7.46685 5.28196C7.36484 5.45864 7.26433 5.6327 7.18932 5.76258C7.15182 5.82752 7.12068 5.88143 7.09892 5.91911C7.08804 5.93795 7.07949 5.95275 7.07365 5.96285C7.07074 5.96789 7.06848 5.9718 7.06693 5.97446C7.06617 5.97578 7.06554 5.97687 7.06508 5.97767C7.06486 5.97804 7.0646 5.9785 7.06434 5.97894C7.06425 5.97911 7.06396 5.9796 7.06362 5.98019C7.0634 5.98056 7.06278 5.98162 7.06236 5.98232C7.06112 5.9844 6.89767 6.14345 6.6793 6.20069V5.31038ZM7.11411 4.11622C7.11901 4.10541 7.13454 4.07057 7.14882 4.03846L7.96231 4.40023C7.94875 4.43073 7.93155 4.46935 7.92497 4.48387L7.11411 4.11622ZM7.14882 4.03845C7.15501 4.02454 7.16186 4.00676 7.17163 3.97919L8.01077 4.27669C7.99868 4.31079 7.98271 4.35437 7.96231 4.40024L7.14882 4.03845ZM7.17159 3.97931C7.47309 3.12813 8.23197 2.58984 9.1344 2.58984V3.48015C8.6106 3.48015 8.18691 3.77942 8.01081 4.27657L7.17159 3.97931ZM9.1344 2.58984C10.3395 2.58984 11.259 3.64071 11.259 4.8561H10.3687C10.3687 4.06315 9.78133 3.48015 9.1344 3.48015V2.58984ZM11.259 4.85608L11.2591 7.45168L10.3687 7.45171L10.3687 4.85611L11.259 4.85608ZM11.2591 7.4517C11.2591 7.69581 11.1633 7.92764 10.9908 8.10048L10.3606 7.47152C10.3642 7.468 10.3659 7.465 10.3668 7.46266C10.3678 7.46032 10.3687 7.45688 10.3687 7.4517H11.2591ZM10.9905 8.10077C10.8177 8.27358 10.5857 8.36952 10.3413 8.36952V7.47921C10.3466 7.47921 10.35 7.47826 10.3523 7.47732C10.3545 7.47638 10.3575 7.4747 10.3609 7.47123L10.9905 8.10077ZM10.108 7.54524L10.108 7.54523L10.5747 8.30347L10.5746 8.30348L10.108 7.54524ZM9.13441 3.73126C8.71117 3.73126 8.39023 3.95768 8.24749 4.36058L7.40829 4.06327C7.6763 3.30675 8.33214 2.84095 9.13441 2.84095V3.73126ZM8.24715 4.36153C8.2331 4.40091 8.21485 4.45064 8.19178 4.50246L7.37842 4.14037C7.38729 4.12045 7.39641 4.09656 7.40863 4.06231L8.24715 4.36153ZM8.19167 4.5027C8.17129 4.54842 8.15421 4.58703 8.14114 4.61318C8.13303 4.62941 8.1199 4.65443 8.10085 4.68214C8.08156 4.71022 8.06249 4.73139 8.06094 4.73316L7.39049 4.14737C7.39154 4.14617 7.39119 4.14656 7.39067 4.14718C7.38999 4.14797 7.38826 4.14998 7.38599 4.15275C7.38092 4.15893 7.37428 4.16745 7.36712 4.17787C7.3532 4.19813 7.34541 4.21385 7.34472 4.21523C7.34421 4.21624 7.34453 4.21564 7.34604 4.2124C7.34751 4.20927 7.34958 4.20475 7.35256 4.19817C7.35864 4.18473 7.36673 4.1666 7.37853 4.14014L8.19167 4.5027ZM7.43475 4.77717L7.43302 4.77568L8.01495 4.10187L8.01668 4.10336L7.43475 4.77717ZM8.11732 4.64723C8.04765 4.77869 7.84875 5.12294 7.28222 6.10385L6.51125 5.65857C7.08574 4.66389 7.27101 4.34286 7.33065 4.23032L8.11732 4.64723ZM7.28203 6.10417C7.31765 6.04261 7.32758 5.96835 7.30926 5.89941L6.44882 6.12809C6.40658 5.96917 6.42894 5.80083 6.51144 5.65825L7.28203 6.10417ZM7.30889 5.89802C7.29057 5.82999 7.24555 5.77048 7.18293 5.73433L6.73781 6.50539C6.59481 6.42283 6.49173 6.2875 6.44919 6.12948L7.30889 5.89802ZM7.1821 5.73385C7.13142 5.70475 7.08214 5.70494 7.04811 5.7141C7.01421 5.72323 6.97074 5.74795 6.94099 5.79979L7.71316 6.24297C7.51915 6.581 7.07577 6.69951 6.73865 6.50587L7.1821 5.73385ZM6.9416 5.79873L7.41819 4.9736L8.18914 5.41889L7.71255 6.24403L6.9416 5.79873ZM7.41846 4.97313C7.54704 4.75114 7.80949 4.64005 8.06124 4.70819L7.82864 5.56758C7.96995 5.60583 8.11724 5.54303 8.18887 5.41936L7.41846 4.97313ZM8.06014 4.70789C8.30987 4.7748 8.48315 5.00111 8.48315 5.25917H7.59284C7.59284 5.40365 7.68981 5.53039 7.82974 5.56787L8.06014 4.70789ZM8.48315 5.25917V7.85316H7.59284V5.25917H8.48315ZM8.48315 7.85316C8.48315 7.80243 8.46436 7.75632 8.43351 7.72103C8.40271 7.68579 8.34836 7.64941 8.27308 7.64446L8.21461 8.53285C7.83987 8.50819 7.59284 8.18175 7.59284 7.85316H8.48315ZM8.26736 7.64412C8.21476 7.64134 8.15052 7.6606 8.10169 7.70934L8.73068 8.33944C8.59014 8.47974 8.40382 8.54289 8.22034 8.53319L8.26736 7.64412ZM8.10141 7.70962C8.05917 7.75187 8.03569 7.80975 8.03569 7.86778H8.926C8.926 8.04459 8.85658 8.21354 8.73096 8.33916L8.10141 7.70962ZM8.03569 7.86778V6.17128H8.926V7.86778H8.03569ZM8.03569 6.17128C8.03569 5.85605 8.29123 5.60051 8.60646 5.60051V6.49082C8.78294 6.49082 8.926 6.34776 8.926 6.17128H8.03569ZM8.60646 5.60051C8.92151 5.60051 9.17723 5.8558 9.17723 6.17128H8.28692C8.28692 6.34786 8.43016 6.49082 8.60646 6.49082V5.60051ZM9.17723 6.1713L9.17715 8.25341L8.28684 8.25338L8.28692 6.17127L9.17723 6.1713ZM9.17715 8.2534C9.17715 8.12962 9.07719 8.02966 8.95342 8.02966V8.91997C8.58549 8.91997 8.28684 8.62133 8.28684 8.2534H9.17715ZM8.95342 8.02966C8.89548 8.02966 8.83788 8.05301 8.79572 8.09509L9.42466 8.72524C9.29896 8.85069 9.12997 8.91997 8.95342 8.91997V8.02966ZM8.79512 8.09569C8.75303 8.13785 8.72969 8.19546 8.72969 8.2534H9.62C9.62 8.42995 9.55072 8.59894 9.42526 8.72464L8.79512 8.09569ZM8.72969 8.2534V6.17128H9.62V8.2534H8.72969ZM8.72969 6.17128C8.72969 5.85624 8.98497 5.60051 9.30046 5.60051V6.49082C9.47704 6.49082 9.62 6.34757 9.62 6.17128H8.72969ZM9.30046 5.60051C9.61551 5.60051 9.87123 5.85579 9.87123 6.17128H8.98092C8.98092 6.34786 9.12417 6.49082 9.30046 6.49082V5.60051ZM9.87123 6.1713L9.87116 7.84829L8.98084 7.84825L8.98092 6.17126L9.87123 6.1713ZM9.87116 7.84827V7.86778H8.98084V7.84827H9.87116ZM9.87116 7.86778C9.87116 7.74371 9.77098 7.64396 9.6475 7.64396V8.53427C9.27971 8.53427 8.98084 8.23585 8.98084 7.86778H9.87116ZM9.6475 7.64396C9.58835 7.64396 9.53108 7.66802 9.49009 7.70886L10.1185 8.33959C9.99344 8.46413 9.82511 8.53427 9.6475 8.53427V7.64396ZM9.48979 7.70915C9.44721 7.75166 9.42377 7.80973 9.42377 7.86769H10.3141C10.3141 8.04443 10.2447 8.21357 10.1187 8.33929L9.48979 7.70915ZM9.42377 7.86769V6.17119H10.3141V7.86769H9.42377ZM9.42377 6.17119C9.42377 5.85614 9.67906 5.60042 9.99454 5.60042V6.49073C10.1711 6.49073 10.3141 6.34749 10.3141 6.17119H9.42377ZM9.99454 5.60042C10.3096 5.60042 10.5653 5.8557 10.5653 6.17119H9.675C9.675 6.34777 9.81825 6.49073 9.99454 6.49073V5.60042ZM10.5653 6.17125L10.5652 7.45181L9.67485 7.4517L9.675 6.17114L10.5653 6.17125ZM10.5652 7.45175C10.5652 7.32827 10.4654 7.2281 10.3413 7.2281V8.11841C9.97329 8.11841 9.67485 7.81955 9.67485 7.45175H10.5652ZM10.3413 7.2281C10.2829 7.2281 10.2253 7.25174 10.1835 7.29353L10.8124 7.92367C10.6872 8.04868 10.5185 8.11841 10.3413 8.11841V7.2281ZM10.1832 7.29383C10.1408 7.33622 10.1175 7.39407 10.1175 7.45175H11.0078C11.0078 7.62806 10.9388 7.79729 10.8127 7.92337L10.1832 7.29383ZM10.1175 7.45174L10.1176 4.85614L11.0079 4.85617L11.0078 7.45177L10.1175 7.45174ZM10.1176 4.85616C10.1176 4.19581 9.63747 3.73129 9.1344 3.73129V2.84098C10.2066 2.84098 11.0079 3.78525 11.0079 4.85616H10.1176ZM8.70637 3.16384L8.70638 3.16381L9.56244 3.4084L9.56243 3.40843L8.70637 3.16384Z" fill="#4CAF4F" mask="url(#path-1-inside-1_212_1413)"/>
<path d="M4.88232 8.78241L4.85693 8.76874C4.8509 8.7796 4.83486 8.80882 4.81104 8.85175C4.81994 8.85621 4.8284 8.86106 4.8374 8.86444C4.85225 8.8377 4.86691 8.81018 4.88232 8.78241Z" fill="#4CAF4F" stroke="#4CAF4F" stroke-width="0.445155"/>
<mask id="path-4-inside-2_212_1413" fill="white">
<path d="M14.1161 12.269C13.8843 12.6556 13.503 12.9202 13.0425 13.0143C12.586 13.1073 12.106 13.0215 11.6905 12.7724L9.46462 11.4371C9.35631 11.3721 9.27969 11.2689 9.24902 11.1464C9.21858 11.024 9.23761 10.897 9.3025 10.7888C9.34301 10.7211 9.3998 10.6678 9.46564 10.6284L9.46501 10.628C9.3567 10.563 9.28009 10.4598 9.24957 10.3374C9.2189 10.215 9.23793 10.0879 9.3029 9.97954C9.34475 9.90993 9.40209 9.85549 9.46753 9.81687C9.37251 9.75151 9.30408 9.65657 9.27592 9.54392C9.24525 9.42145 9.26428 9.29441 9.32925 9.18618C9.39415 9.07786 9.49742 9.00133 9.61982 8.97074C9.65805 8.96114 9.69683 8.95642 9.73521 8.95642C9.81057 8.9565 9.88451 8.97561 9.95247 9.01117C9.95664 8.92315 9.98283 8.8367 10.0343 8.76252C10.1753 8.55904 10.4578 8.50272 10.6779 8.63478L12.5007 9.72813L12.2657 9.30494C12.1756 9.14338 12.1789 8.94406 12.2745 8.7847C12.321 8.70714 12.3876 8.64272 12.4671 8.59812C12.5325 8.56194 12.6033 8.54479 12.6731 8.54479C12.8231 8.54487 12.9688 8.624 13.0463 8.7641C13.3166 9.25108 13.8266 10.1695 13.8625 10.2336C13.8701 10.2447 13.8932 10.2777 13.9129 10.3058C13.9317 10.3325 13.952 10.358 13.973 10.3833C14.4281 10.935 14.483 11.6575 14.1161 12.269L14.1161 12.269ZM13.7792 10.5434C13.7542 10.5131 13.7297 10.4822 13.7073 10.4503C13.6394 10.3539 13.6376 10.3514 13.6325 10.3261C13.5531 10.1947 13.3593 9.84575 12.8265 8.88595C12.7798 8.8017 12.6736 8.77095 12.589 8.81767C12.5474 8.84095 12.514 8.87344 12.4896 8.91411C12.4402 8.99646 12.4383 9.09935 12.485 9.18289L12.9473 10.016C12.9749 10.0657 12.9657 10.1277 12.9249 10.1671C12.8842 10.2067 12.8219 10.2136 12.7729 10.1845L10.5487 8.85016C10.4438 8.78731 10.3056 8.81193 10.2408 8.90553C10.2035 8.95933 10.1916 9.02352 10.2072 9.08621C10.2215 9.14348 10.2575 9.19177 10.3084 9.22229C10.3085 9.22237 10.3086 9.22253 10.3088 9.2226L11.7631 10.0951C11.8225 10.1308 11.8418 10.2079 11.8061 10.2674C11.7704 10.3268 11.6934 10.3462 11.6338 10.3104L9.84829 9.23936C9.79764 9.209 9.73802 9.20004 9.68075 9.21443C9.62333 9.22874 9.57504 9.26461 9.5446 9.3155C9.51408 9.36624 9.50527 9.42578 9.51943 9.48305C9.53374 9.54031 9.56969 9.58868 9.6205 9.6192L9.96794 9.82758L11.4059 10.6903C11.4653 10.726 11.4846 10.8031 11.4489 10.8626C11.4132 10.922 11.3362 10.9414 11.2766 10.9057L9.82195 10.033C9.71733 9.97003 9.5811 10.0042 9.51817 10.1089C9.48765 10.1597 9.47884 10.2193 9.493 10.2766C9.50731 10.3338 9.54326 10.3821 9.59415 10.4127L9.95079 10.6267L11.0488 11.2854C11.1082 11.3211 11.1275 11.3982 11.0918 11.4578C11.0561 11.5172 10.9791 11.5367 10.9195 11.5008L9.82148 10.842C9.77082 10.8117 9.71143 10.8027 9.65385 10.8171C9.59659 10.8314 9.54814 10.8673 9.5177 10.918C9.48726 10.9688 9.47837 11.0285 9.49253 11.0856C9.50684 11.1429 9.54279 11.1912 9.59368 11.2218L11.8196 12.5571C12.1808 12.7738 12.5973 12.8488 12.9921 12.7683C13.3827 12.6885 13.7053 12.4654 13.9006 12.1399C14.2161 11.6143 14.1707 11.0174 13.7793 10.5434L13.7792 10.5434Z"/>
</mask>
<path d="M14.1161 12.269C13.8843 12.6556 13.503 12.9202 13.0425 13.0143C12.586 13.1073 12.106 13.0215 11.6905 12.7724L9.46462 11.4371C9.35631 11.3721 9.27969 11.2689 9.24902 11.1464C9.21858 11.024 9.23761 10.897 9.3025 10.7888C9.34301 10.7211 9.3998 10.6678 9.46564 10.6284L9.46501 10.628C9.3567 10.563 9.28009 10.4598 9.24957 10.3374C9.2189 10.215 9.23793 10.0879 9.3029 9.97954C9.34475 9.90993 9.40209 9.85549 9.46753 9.81687C9.37251 9.75151 9.30408 9.65657 9.27592 9.54392C9.24525 9.42145 9.26428 9.29441 9.32925 9.18618C9.39415 9.07786 9.49742 9.00133 9.61982 8.97074C9.65805 8.96114 9.69683 8.95642 9.73521 8.95642C9.81057 8.9565 9.88451 8.97561 9.95247 9.01117C9.95664 8.92315 9.98283 8.8367 10.0343 8.76252C10.1753 8.55904 10.4578 8.50272 10.6779 8.63478L12.5007 9.72813L12.2657 9.30494C12.1756 9.14338 12.1789 8.94406 12.2745 8.7847C12.321 8.70714 12.3876 8.64272 12.4671 8.59812C12.5325 8.56194 12.6033 8.54479 12.6731 8.54479C12.8231 8.54487 12.9688 8.624 13.0463 8.7641C13.3166 9.25108 13.8266 10.1695 13.8625 10.2336C13.8701 10.2447 13.8932 10.2777 13.9129 10.3058C13.9317 10.3325 13.952 10.358 13.973 10.3833C14.4281 10.935 14.483 11.6575 14.1161 12.269L14.1161 12.269ZM13.7792 10.5434C13.7542 10.5131 13.7297 10.4822 13.7073 10.4503C13.6394 10.3539 13.6376 10.3514 13.6325 10.3261C13.5531 10.1947 13.3593 9.84575 12.8265 8.88595C12.7798 8.8017 12.6736 8.77095 12.589 8.81767C12.5474 8.84095 12.514 8.87344 12.4896 8.91411C12.4402 8.99646 12.4383 9.09935 12.485 9.18289L12.9473 10.016C12.9749 10.0657 12.9657 10.1277 12.9249 10.1671C12.8842 10.2067 12.8219 10.2136 12.7729 10.1845L10.5487 8.85016C10.4438 8.78731 10.3056 8.81193 10.2408 8.90553C10.2035 8.95933 10.1916 9.02352 10.2072 9.08621C10.2215 9.14348 10.2575 9.19177 10.3084 9.22229C10.3085 9.22237 10.3086 9.22253 10.3088 9.2226L11.7631 10.0951C11.8225 10.1308 11.8418 10.2079 11.8061 10.2674C11.7704 10.3268 11.6934 10.3462 11.6338 10.3104L9.84829 9.23936C9.79764 9.209 9.73802 9.20004 9.68075 9.21443C9.62333 9.22874 9.57504 9.26461 9.5446 9.3155C9.51408 9.36624 9.50527 9.42578 9.51943 9.48305C9.53374 9.54031 9.56969 9.58868 9.6205 9.6192L9.96794 9.82758L11.4059 10.6903C11.4653 10.726 11.4846 10.8031 11.4489 10.8626C11.4132 10.922 11.3362 10.9414 11.2766 10.9057L9.82195 10.033C9.71733 9.97003 9.5811 10.0042 9.51817 10.1089C9.48765 10.1597 9.47884 10.2193 9.493 10.2766C9.50731 10.3338 9.54326 10.3821 9.59415 10.4127L9.95079 10.6267L11.0488 11.2854C11.1082 11.3211 11.1275 11.3982 11.0918 11.4578C11.0561 11.5172 10.9791 11.5367 10.9195 11.5008L9.82148 10.842C9.77082 10.8117 9.71143 10.8027 9.65385 10.8171C9.59659 10.8314 9.54814 10.8673 9.5177 10.918C9.48726 10.9688 9.47837 11.0285 9.49253 11.0856C9.50684 11.1429 9.54279 11.1912 9.59368 11.2218L11.8196 12.5571C12.1808 12.7738 12.5973 12.8488 12.9921 12.7683C13.3827 12.6885 13.7053 12.4654 13.9006 12.1399C14.2161 11.6143 14.1707 11.0174 13.7793 10.5434L13.7792 10.5434Z" fill="#4CAF4F"/>
<path d="M14.1161 12.269L13.9725 11.8476L15.123 11.4554L14.4979 12.4979L14.1161 12.269ZM13.0425 13.0143L13.1316 13.4504L13.1314 13.4504L13.0425 13.0143ZM11.6905 12.7724L11.4616 13.1542L11.4615 13.1541L11.6905 12.7724ZM9.46462 11.4371L9.69361 11.0553L9.69362 11.0553L9.46462 11.4371ZM9.24902 11.1464L8.81718 11.2544L8.81704 11.2539L9.24902 11.1464ZM9.3025 10.7888L9.68442 11.0175L9.6843 11.0177L9.3025 10.7888ZM9.46564 10.6284L9.70157 10.2509L10.3187 10.6366L9.69426 11.0103L9.46564 10.6284ZM9.46501 10.628L9.69404 10.2462L9.70094 10.2505L9.46501 10.628ZM9.24957 10.3374L9.68137 10.2292L9.68151 10.2297L9.24957 10.3374ZM9.3029 9.97954L8.9211 9.75065L8.92137 9.75019L9.3029 9.97954ZM9.46753 9.81687L9.71983 9.45012L10.2947 9.8456L9.69377 10.2003L9.46753 9.81687ZM9.27592 9.54392L9.70774 9.43576L9.70779 9.43596L9.27592 9.54392ZM9.32925 9.18618L9.71112 9.41496L9.71092 9.41529L9.32925 9.18618ZM9.61982 8.97074L9.72821 9.4025L9.72777 9.40261L9.61982 8.97074ZM9.73521 8.95642V8.51126L9.73568 8.51126L9.73521 8.95642ZM9.95247 9.01117L10.3971 9.03223L10.3641 9.72894L9.74611 9.4056L9.95247 9.01117ZM10.0343 8.76252L10.4001 9.01611L10.4001 9.0162L10.0343 8.76252ZM10.6779 8.63478L10.449 9.01653L10.4489 9.01649L10.6779 8.63478ZM12.5007 9.72813L12.8899 9.51205L13.6962 10.9643L12.2717 10.1099L12.5007 9.72813ZM12.2657 9.30494L12.6545 9.08805L12.6549 9.08886L12.2657 9.30494ZM12.2745 8.7847L11.8927 8.55575L11.8928 8.55555L12.2745 8.7847ZM12.4671 8.59812L12.2494 8.20985L12.2515 8.20865L12.4671 8.59812ZM12.6731 8.54479V8.09963L12.6733 8.09963L12.6731 8.54479ZM13.0463 8.7641L12.6571 8.98012L12.6569 8.97967L13.0463 8.7641ZM13.8625 10.2336L13.4957 10.4859L13.484 10.4689L13.474 10.4509L13.8625 10.2336ZM13.9129 10.3058L13.5491 10.5623L13.5488 10.5618L13.9129 10.3058ZM13.973 10.3833L14.3157 10.0991L14.3164 10.1L13.973 10.3833ZM14.1161 12.269L14.2597 12.6903L13.1086 13.0827L13.7344 12.0399L14.1161 12.269ZM13.7792 10.5434L13.8233 10.9863L13.5871 11.0098L13.436 10.8269L13.7792 10.5434ZM13.7073 10.4503L14.0712 10.1939L14.0718 10.1947L13.7073 10.4503ZM13.6325 10.3261L14.0135 10.0958L14.0535 10.162L14.0688 10.2378L13.6325 10.3261ZM12.8265 8.88595L12.4373 9.10199L12.4372 9.10186L12.8265 8.88595ZM12.589 8.81767L12.3717 8.42919L12.3737 8.42804L12.589 8.81767ZM12.4896 8.91411L12.8714 9.14302L12.8714 9.14309L12.4896 8.91411ZM12.485 9.18289L12.8737 8.96588L12.8742 8.96687L12.485 9.18289ZM12.9473 10.016L12.5582 10.2321L12.5581 10.232L12.9473 10.016ZM12.9249 10.1671L12.6148 9.84778L12.6154 9.84717L12.9249 10.1671ZM12.7729 10.1845L12.5454 10.5671L12.5439 10.5663L12.7729 10.1845ZM10.5487 8.85016L10.7775 8.46834L10.7777 8.46842L10.5487 8.85016ZM10.2408 8.90553L10.6068 9.15897L10.6067 9.15909L10.2408 8.90553ZM10.2072 9.08621L9.77534 9.19418L9.77518 9.19353L10.2072 9.08621ZM10.3084 9.22229L10.1092 9.62043L10.094 9.61281L10.0794 9.60406L10.3084 9.22229ZM10.3088 9.2226L10.5079 8.82447L10.5231 8.8321L10.5378 8.84087L10.3088 9.2226ZM11.7631 10.0951L11.9921 9.71335L11.9923 9.71345L11.7631 10.0951ZM11.8061 10.2674L12.1879 10.4964L12.1876 10.4968L11.8061 10.2674ZM11.6338 10.3104L11.8628 9.92871L11.8629 9.92878L11.6338 10.3104ZM9.84829 9.23936L10.0772 8.85754L10.0773 8.85763L9.84829 9.23936ZM9.68075 9.21443L9.78927 9.64616L9.78844 9.64636L9.68075 9.21443ZM9.5446 9.3155L9.92663 9.54401L9.92605 9.54497L9.5446 9.3155ZM9.51943 9.48305L9.08756 9.59101L9.08728 9.58989L9.51943 9.48305ZM9.6205 9.6192L9.39154 10.001L9.3913 10.0008L9.6205 9.6192ZM9.96794 9.82758L10.1969 9.44581L10.197 9.44585L9.96794 9.82758ZM11.4059 10.6903L11.6349 10.3086L11.6351 10.3087L11.4059 10.6903ZM11.4489 10.8626L11.8307 11.0916L11.8304 11.092L11.4489 10.8626ZM11.2766 10.9057L11.0478 11.2876L11.0476 11.2874L11.2766 10.9057ZM9.82195 10.033L9.59293 10.4147L9.5925 10.4144L9.82195 10.033ZM9.51817 10.1089L9.89979 10.3381L9.89978 10.3381L9.51817 10.1089ZM9.493 10.2766L9.06113 10.3845L9.06086 10.3834L9.493 10.2766ZM9.59415 10.4127L9.36515 10.7944L9.36478 10.7942L9.59415 10.4127ZM9.95079 10.6267L10.1798 10.2449L10.1798 10.2449L9.95079 10.6267ZM11.0488 11.2854L11.2778 10.9037L11.278 10.9038L11.0488 11.2854ZM11.0918 11.4578L11.4736 11.6867L11.4733 11.6872L11.0918 11.4578ZM10.9195 11.5008L11.1485 11.1191L11.1489 11.1193L10.9195 11.5008ZM9.82148 10.842L10.0503 10.4602L10.0505 10.4603L9.82148 10.842ZM9.65385 10.8171L9.54589 10.3852L9.5459 10.3852L9.65385 10.8171ZM9.5177 10.918L9.13582 10.6892L9.13598 10.689L9.5177 10.918ZM9.49253 11.0856L9.06066 11.1936L9.06042 11.1926L9.49253 11.0856ZM9.59368 11.2218L9.36468 11.6035L9.3643 11.6033L9.59368 11.2218ZM11.8196 12.5571L12.0486 12.1753L12.0486 12.1754L11.8196 12.5571ZM12.9921 12.7683L13.0811 13.2044L13.0811 13.2044L12.9921 12.7683ZM13.9006 12.1399L13.5188 11.9109L13.5189 11.9108L13.9006 12.1399ZM13.7793 10.5434L13.7352 10.1004L13.9715 10.0769L14.1227 10.26L13.7793 10.5434ZM14.4979 12.4979C14.1988 12.9967 13.7085 13.3326 13.1316 13.4504L12.9534 12.5781C13.2976 12.5078 13.5698 12.3145 13.7343 12.04L14.4979 12.4979ZM13.1314 13.4504C12.5613 13.5667 11.9684 13.458 11.4616 13.1542L11.9194 12.3906C12.2436 12.585 12.6108 12.648 12.9536 12.5781L13.1314 13.4504ZM11.4615 13.1541L9.23562 11.8188L9.69362 11.0553L11.9195 12.3906L11.4615 13.1541ZM9.23563 11.8188C9.02629 11.6933 8.87657 11.4917 8.81718 11.2544L9.68085 11.0383C9.68206 11.0431 9.68374 11.0461 9.68523 11.0481C9.68673 11.0501 9.68918 11.0527 9.69361 11.0553L9.23563 11.8188ZM8.81704 11.2539C8.75807 11.0169 8.79537 10.7689 8.92071 10.5599L9.6843 11.0177C9.68163 11.0221 9.68065 11.0256 9.68026 11.0282C9.67988 11.0307 9.67983 11.0341 9.681 11.0388L8.81704 11.2539ZM8.92059 10.5601C9.00313 10.4222 9.11592 10.3189 9.23702 10.2464L9.69426 11.0103C9.68884 11.0136 9.68596 11.0161 9.6848 11.0172C9.68376 11.0183 9.68391 11.0183 9.68442 11.0175L8.92059 10.5601ZM9.22971 11.0059L9.22908 11.0055L9.70094 10.2505L9.70157 10.2509L9.22971 11.0059ZM9.23602 11.0097C9.02678 10.8842 8.87686 10.6826 8.81764 10.4451L9.68151 10.2297C9.68263 10.2343 9.68421 10.2371 9.68566 10.2391C9.68712 10.241 9.68956 10.2436 9.694 10.2463L9.23602 11.0097ZM8.81777 10.4456C8.75825 10.2082 8.79569 9.95983 8.9211 9.75065L9.6847 10.2084C9.68198 10.213 9.68102 10.2164 9.68065 10.2189C9.68029 10.2214 9.68023 10.2246 9.68137 10.2292L8.81777 10.4456ZM8.92137 9.75019C9.00356 9.61347 9.11585 9.50752 9.24129 9.43349L9.69377 10.2003C9.69088 10.202 9.68892 10.2036 9.68762 10.2048C9.6864 10.206 9.68539 10.2073 9.68443 10.2089L8.92137 9.75019ZM9.21524 10.1836C9.03543 10.0599 8.89986 9.8751 8.84406 9.65188L9.70779 9.43596C9.70831 9.43806 9.70902 9.43955 9.71017 9.44118C9.71142 9.44295 9.71421 9.44625 9.71983 9.45012L9.21524 10.1836ZM8.84411 9.65208C8.78463 9.41463 8.82199 9.16629 8.94758 8.95707L9.71092 9.41529C9.70828 9.41969 9.70735 9.42305 9.707 9.42543C9.70664 9.4278 9.70657 9.4311 9.70774 9.43576L8.84411 9.65208ZM8.94739 8.95739C9.07303 8.74769 9.27486 8.59811 9.51188 8.53887L9.72777 9.40261C9.72302 9.40379 9.72006 9.40545 9.71808 9.40692C9.71611 9.40838 9.71365 9.41074 9.71112 9.41496L8.94739 8.95739ZM9.51144 8.53898C9.58518 8.52046 9.66036 8.51126 9.73521 8.51126V9.40158C9.73329 9.40158 9.73092 9.40181 9.72821 9.40249L9.51144 8.53898ZM9.73568 8.51126C9.8869 8.51142 10.0311 8.54991 10.1588 8.61673L9.74611 9.4056C9.74187 9.40339 9.73885 9.40241 9.73717 9.40198C9.73554 9.40157 9.7348 9.40158 9.73475 9.40158L9.73568 8.51126ZM9.50781 8.99011C9.51548 8.82822 9.56429 8.65907 9.66847 8.50885L10.4001 9.0162C10.4014 9.01433 10.3978 9.01808 10.3971 9.03223L9.50781 8.99011ZM9.66841 8.50894C9.95036 8.10214 10.497 8.00708 10.907 8.25307L10.4489 9.01649C10.4359 9.00871 10.4232 9.00746 10.4132 9.00944C10.4035 9.01138 10.4008 9.01515 10.4001 9.01611L9.66841 8.50894ZM10.9069 8.25303L12.7297 9.34639L12.2717 10.1099L10.449 9.01653L10.9069 8.25303ZM12.1115 9.94421L11.8765 9.52102L12.6549 9.08886L12.8899 9.51205L12.1115 9.94421ZM11.877 9.52184C11.7089 9.22048 11.7156 8.85113 11.8927 8.55575L12.6562 9.01364C12.6422 9.03699 12.6423 9.06628 12.6545 9.08805L11.877 9.52184ZM11.8928 8.55555C11.9796 8.41095 12.1029 8.29196 12.2494 8.20985L12.6849 8.98638C12.6722 8.99347 12.6624 9.00332 12.6561 9.01384L11.8928 8.55555ZM12.2515 8.20865C12.3847 8.13492 12.53 8.09963 12.6731 8.09963V8.98994C12.6765 8.98994 12.6802 8.98895 12.6827 8.98759L12.2515 8.20865ZM12.6733 8.09963C12.9775 8.09979 13.2763 8.26028 13.4358 8.54852L12.6569 8.97967C12.6586 8.98286 12.6618 8.98599 12.665 8.98782C12.6675 8.98928 12.67 8.98994 12.6729 8.98994L12.6733 8.09963ZM13.4356 8.54808C13.7062 9.03564 14.2156 9.95302 14.251 10.0163L13.474 10.4509C13.4376 10.3859 12.9271 9.46652 12.6571 8.98012L13.4356 8.54808ZM14.2292 9.98129C14.2355 9.99044 14.2575 10.022 14.2771 10.0498L13.5488 10.5618C13.5288 10.5335 13.5047 10.4989 13.4957 10.4859L14.2292 9.98129ZM14.2767 10.0493C14.2859 10.0624 14.2979 10.0778 14.3157 10.0991L13.6303 10.6674C13.606 10.6381 13.5775 10.6026 13.5491 10.5623L14.2767 10.0493ZM14.3164 10.1C14.891 10.7965 14.9621 11.7242 14.4978 12.498L13.7344 12.0399C14.0039 11.5908 13.9653 11.0735 13.6296 10.6666L14.3164 10.1ZM13.9724 11.8476L13.9725 11.8476L14.2597 12.6903L14.2597 12.6903L13.9724 11.8476ZM13.436 10.8269C13.4079 10.7928 13.3749 10.7516 13.3428 10.7059L14.0718 10.1947C14.0844 10.2127 14.1005 10.2334 14.1224 10.2599L13.436 10.8269ZM13.3434 10.7067C13.3154 10.667 13.2853 10.6248 13.2653 10.5917C13.2519 10.5695 13.234 10.5372 13.2189 10.496C13.2042 10.4559 13.1976 10.4215 13.1962 10.4145L14.0688 10.2378C14.0699 10.2433 14.0655 10.2187 14.0547 10.1892C14.0435 10.1586 14.0312 10.1377 14.0274 10.1314C14.0256 10.1284 14.0249 10.1274 14.0263 10.1295C14.0276 10.1315 14.03 10.135 14.034 10.1408C14.0423 10.1529 14.0537 10.1691 14.0712 10.1939L13.3434 10.7067ZM13.2515 10.5564C13.1665 10.4157 12.9663 10.0551 12.4373 9.10199L13.2157 8.66991C13.7522 9.63643 13.9396 9.97368 14.0135 10.0958L13.2515 10.5564ZM12.4372 9.10186C12.5093 9.23182 12.6734 9.27966 12.8043 9.2073L12.3737 8.42804C12.6738 8.26224 13.0503 8.37159 13.2158 8.67004L12.4372 9.10186ZM12.8064 9.20615C12.8326 9.19151 12.8558 9.16899 12.8714 9.14302L12.1078 8.6852C12.1722 8.57789 12.2623 8.4904 12.3717 8.42919L12.8064 9.20615ZM12.8714 9.14309C12.9032 9.08994 12.9054 9.02273 12.8736 8.96588L12.0963 9.3999C11.9713 9.17596 11.9772 8.90299 12.1079 8.68513L12.8714 9.14309ZM12.8742 8.96687L13.3366 9.79994L12.5581 10.232L12.0957 9.39891L12.8742 8.96687ZM13.3365 9.79983C13.4618 10.0255 13.4202 10.3074 13.2344 10.4871L12.6154 9.84717C12.5113 9.94791 12.488 10.1058 12.5582 10.2321L13.3365 9.79983ZM13.235 10.4865C13.0477 10.6684 12.7646 10.6975 12.5454 10.5671L13.0005 9.80194C12.8792 9.72974 12.7206 9.74505 12.6148 9.84778L13.235 10.4865ZM12.5439 10.5663L10.3197 9.23189L10.7777 8.46842L13.0019 9.80279L12.5439 10.5663ZM10.3198 9.23197C10.3632 9.258 10.4123 9.26559 10.4583 9.25734C10.5043 9.24909 10.5637 9.2212 10.6068 9.15897L9.87482 8.6521C10.0891 8.34267 10.4965 8.29988 10.7775 8.46834L10.3198 9.23197ZM10.6067 9.15909C10.6414 9.10894 10.6549 9.04187 10.6392 8.97889L9.77518 9.19353C9.72839 9.00517 9.76559 8.80972 9.87491 8.65198L10.6067 9.15909ZM10.6391 8.97825C10.6245 8.91994 10.5868 8.87021 10.5373 8.84052L10.0794 9.60406C9.92813 9.51333 9.81855 9.36701 9.77534 9.19418L10.6391 8.97825ZM10.5075 8.82415C10.5477 8.84426 10.5773 8.86669 10.596 8.88253C10.6052 8.89032 10.6123 8.89701 10.6166 8.90113C10.6188 8.90323 10.6206 8.90495 10.6216 8.906C10.6222 8.90654 10.6226 8.90697 10.6229 8.90724C10.623 8.90737 10.6231 8.90748 10.6232 8.90755C10.6232 8.90758 10.6233 8.90761 10.6233 8.90763C10.6233 8.90764 10.6233 8.90765 10.6233 8.90765C10.6233 8.90765 10.6233 8.90765 10.6233 8.90766C10.6233 8.90766 10.6233 8.90766 10.6233 8.90766C10.6239 8.90822 10.6206 8.90494 10.6167 8.90122C10.6125 8.89712 10.6054 8.89047 10.5962 8.8827C10.5775 8.86691 10.548 8.84454 10.5079 8.82447L10.1096 9.62074C10.0694 9.60063 10.0398 9.57821 10.0211 9.56236C10.0119 9.55457 10.0048 9.54789 10.0005 9.54376C9.99828 9.54166 9.99653 9.53994 9.99547 9.53889C9.99493 9.53836 9.99449 9.53792 9.99422 9.53766C9.99409 9.53752 9.99398 9.53741 9.99391 9.53734C9.99388 9.53731 9.99385 9.53728 9.99383 9.53726C9.99382 9.53726 9.99381 9.53725 9.99381 9.53724C9.99381 9.53724 9.99381 9.53724 9.9938 9.53724C9.9938 9.53724 9.9938 9.53724 9.9938 9.53724C9.99324 9.53668 9.99649 9.53995 10.0004 9.54368C10.0046 9.54777 10.0117 9.55442 10.0209 9.56219C10.0396 9.57798 10.0691 9.60036 10.1092 9.62043L10.5075 8.82415ZM10.5378 8.84087L11.9921 9.71335L11.5341 10.4768L10.0797 9.60434L10.5378 8.84087ZM11.9923 9.71345C12.2625 9.87573 12.3499 10.2262 12.1879 10.4964L11.4243 10.0385C11.3337 10.1896 11.3826 10.3858 11.5339 10.4767L11.9923 9.71345ZM12.1876 10.4968C12.0257 10.766 11.6757 10.8548 11.4046 10.6921L11.8629 9.92878C11.7111 9.83765 11.5151 9.88757 11.4246 10.038L12.1876 10.4968ZM11.4048 10.6922L9.6193 9.6211L10.0773 8.85763L11.8628 9.92871L11.4048 10.6922ZM9.61944 9.62119C9.66944 9.65116 9.73111 9.66078 9.78927 9.64615L9.57223 8.7827C9.74492 8.7393 9.92583 8.76685 10.0772 8.85754L9.61944 9.62119ZM9.78844 9.64636C9.84625 9.63195 9.8965 9.59438 9.92663 9.54401L9.16257 9.08699C9.25357 8.93485 9.40041 8.82554 9.57307 8.7825L9.78844 9.64636ZM9.92605 9.54497C9.95662 9.49415 9.96553 9.43267 9.95157 9.3762L9.08728 9.58989C9.045 9.41889 9.07153 9.23833 9.16314 9.08604L9.92605 9.54497ZM9.95129 9.37508C9.93679 9.31709 9.89935 9.26741 9.8497 9.23759L9.3913 10.0008C9.24003 9.90996 9.13069 9.76353 9.08756 9.59101L9.95129 9.37508ZM9.84946 9.23744L10.1969 9.44581L9.73898 10.2093L9.39154 10.001L9.84946 9.23744ZM10.197 9.44585L11.6349 10.3086L11.1769 11.072L9.73891 10.2093L10.197 9.44585ZM11.6351 10.3087C11.9053 10.471 11.9927 10.8214 11.8307 11.0916L11.0672 10.6337C10.9765 10.7848 11.0254 10.9811 11.1767 11.0719L11.6351 10.3087ZM11.8304 11.092C11.6683 11.3617 11.3183 11.4496 11.0478 11.2876L11.5053 10.5238C11.3541 10.4332 11.1581 10.4824 11.0674 10.6332L11.8304 11.092ZM11.0476 11.2874L9.59293 10.4147L10.051 9.65123L11.5056 10.5239L11.0476 11.2874ZM9.5925 10.4144C9.69939 10.4787 9.83651 10.4435 9.89979 10.3381L9.13655 9.87974C9.32568 9.56484 9.73527 9.46134 10.0514 9.65149L9.5925 10.4144ZM9.89978 10.3381C9.93013 10.2876 9.93912 10.2263 9.92514 10.1697L9.06086 10.3834C9.01856 10.2123 9.04517 10.0319 9.13656 9.87973L9.89978 10.3381ZM9.92486 10.1686C9.91027 10.1102 9.87262 10.0607 9.82353 10.0312L9.36478 10.7942C9.21391 10.7035 9.10436 10.5574 9.06113 10.3845L9.92486 10.1686ZM9.82316 10.031L10.1798 10.2449L9.72179 11.0084L9.36515 10.7944L9.82316 10.031ZM10.1798 10.2449L11.2778 10.9037L10.8197 11.6672L9.72177 11.0084L10.1798 10.2449ZM11.278 10.9038C11.5482 11.0661 11.6356 11.4165 11.4736 11.6867L10.71 11.2288C10.6194 11.3799 10.6683 11.5762 10.8196 11.6671L11.278 10.9038ZM11.4733 11.6872C11.3117 11.956 10.9616 12.0457 10.69 11.8822L11.1489 11.1193C10.9966 11.0277 10.8005 11.0783 10.7103 11.2284L11.4733 11.6872ZM10.6904 11.8825L9.59245 11.2238L10.0505 10.4603L11.1485 11.1191L10.6904 11.8825ZM9.59262 11.2239C9.64275 11.2539 9.70446 11.2633 9.76181 11.249L9.5459 10.3852C9.71841 10.3421 9.89889 10.3694 10.0503 10.4602L9.59262 11.2239ZM9.76182 11.249C9.8191 11.2346 9.86912 11.1975 9.89942 11.147L9.13598 10.689C9.22716 10.537 9.37408 10.4282 9.54589 10.3852L9.76182 11.249ZM9.89957 11.1468C9.92949 11.0968 9.93878 11.0358 9.92464 10.9786L9.06042 11.1926C9.01796 11.0211 9.04503 10.8408 9.13582 10.6892L9.89957 11.1468ZM9.92439 10.9777C9.9098 10.9193 9.87214 10.8698 9.82306 10.8403L9.3643 11.6033C9.21344 11.5126 9.10388 11.3665 9.06066 11.1936L9.92439 10.9777ZM9.82268 10.8401L12.0486 12.1753L11.5906 12.9388L9.36468 11.6035L9.82268 10.8401ZM12.0486 12.1754C12.3191 12.3377 12.6228 12.3893 12.9031 12.3321L13.0811 13.2044C12.5719 13.3083 12.0424 13.2099 11.5906 12.9388L12.0486 12.1754ZM12.903 12.3321C13.1783 12.2759 13.3914 12.1234 13.5188 11.9109L14.2823 12.3688C14.0193 12.8073 13.587 13.1011 13.0811 13.2044L12.903 12.3321ZM13.5189 11.9108C13.7369 11.5475 13.7078 11.156 13.436 10.8267L14.1227 10.26C14.6335 10.8789 14.6952 11.681 14.2822 12.369L13.5189 11.9108ZM13.8234 10.9863L13.8233 10.9863L13.7351 10.1004L13.7352 10.1004L13.8234 10.9863Z" fill="#4CAF4F" mask="url(#path-4-inside-2_212_1413)"/>
</svg>
