<svg width="20" height="11" viewBox="0 0 20 11" fill="none" xmlns="http://www.w3.org/2000/svg">
<path d="M19.2993 4.26085C19.3013 4.24693 19.3013 4.23285 19.2993 4.21893C19.3012 4.20759 19.3012 4.19602 19.2993 4.18465L19.1633 3.20554C19.1437 3.0884 19.0912 2.97891 19.0118 2.88933L18.9884 2.86266L18.9457 2.82075L16.5907 0.832046L16.6568 0.896818C16.6028 0.833422 16.5349 0.782714 16.4583 0.748429C16.3816 0.714143 16.298 0.697152 16.2138 0.698708H15.4988C15.3825 0.696449 15.2689 0.732691 15.1762 0.801573C15.0789 0.733106 14.9618 0.69705 14.842 0.698708H14.127C14.0332 0.697216 13.9407 0.720034 13.8588 0.764857C13.7769 0.80968 13.7086 0.874917 13.6607 0.953961C13.5868 1.06686 13.559 1.20288 13.5829 1.33494L13.6723 1.95212C13.6131 1.91921 13.5461 1.90214 13.478 1.9026H10.0155C9.89128 1.90336 9.76991 1.93906 9.66576 2.00546C9.56504 2.06726 9.48419 2.15576 9.4326 2.26071L9.16445 2.03594C9.05892 1.94021 8.91962 1.88832 8.77586 1.89117H3.34313C3.21846 1.89339 3.09656 1.92754 2.98951 1.99022C2.84305 2.07426 2.73572 2.21091 2.69027 2.3712L0.964859 8.02871C0.93262 8.12194 0.929448 8.22247 0.955751 8.31748C0.982053 8.41245 1.03664 8.49764 1.11253 8.56209C1.13231 8.57852 1.15307 8.59379 1.17471 8.60779C1.17471 8.60779 1.13973 8.58493 1.1203 8.5659L3.47527 10.5584C3.57489 10.6483 3.70513 10.6986 3.84053 10.6994H9.31602C9.44107 10.6962 9.56305 10.6607 9.66966 10.5965C9.72995 10.5642 9.78389 10.5216 9.82898 10.4708L9.84841 10.4441L9.8795 10.406L9.90281 10.3641L10.1593 10.5813C10.2575 10.6676 10.3849 10.7151 10.5168 10.7146H16.0039C16.1289 10.7105 16.2506 10.6751 16.3576 10.6117C16.4165 10.5775 16.4701 10.5351 16.5169 10.486L16.5363 10.4593L16.5674 10.4213C16.5839 10.3971 16.5983 10.3717 16.6102 10.345C16.6229 10.322 16.6333 10.2977 16.6412 10.2727L18.2151 5.10662V5.0609C18.217 5.04317 18.217 5.02529 18.2151 5.00756V4.97329C18.217 4.96192 18.217 4.95035 18.2151 4.93898C18.2169 4.91489 18.2169 4.8907 18.2151 4.86659H18.7203C18.7642 4.87055 18.8085 4.87055 18.8524 4.86659H18.8874C18.9158 4.85828 18.9432 4.84676 18.969 4.83231H19.0079L19.0778 4.77898L19.1089 4.75611L19.1633 4.68753V4.66469L19.2022 4.59991C19.2 4.58732 19.2 4.57442 19.2022 4.56183C19.2001 4.55564 19.2001 4.54896 19.2022 4.54277C19.2104 4.52044 19.2169 4.4975 19.2216 4.47419C19.2198 4.46668 19.2198 4.45884 19.2216 4.45133C19.2197 4.43998 19.2197 4.42839 19.2216 4.41705C19.2216 4.41705 19.2993 4.26846 19.2993 4.26085Z" fill="black"/>
</svg>
